<?xml version="1.0" standalone="no"?>
<!DOCTYPE svg PUBLIC "-//W3C//DTD SVG 20010904//EN"
 "http://www.w3.org/TR/2001/REC-SVG-20010904/DTD/svg10.dtd">
<svg version="1.0" xmlns="http://www.w3.org/2000/svg"
 width="225.000000pt" height="225.000000pt" viewBox="0 0 225.000000 225.000000"
 preserveAspectRatio="xMidYMid meet">
<metadata>
Created by potrace 1.11, written by Peter Selinger 2001-2013
</metadata>
<g transform="translate(0.000000,225.000000) scale(0.100000,-0.100000)"
fill="#000000" stroke="none">
<path d="M970 1975 c-144 -40 -285 -141 -366 -263 -21 -31 -52 -95 -68 -142
l-31 -85 -5 -475 c-6 -526 -1 -492 -74 -579 -75 -90 -26 -161 111 -161 32 1
82 9 111 19 52 18 54 18 90 0 47 -24 140 -24 210 0 52 18 54 18 90 0 47 -24
140 -24 210 0 52 18 54 18 90 0 45 -23 129 -25 201 -3 64 18 126 77 168 156
l28 53 0 495 0 495 -27 75 c-37 105 -72 163 -144 239 -70 74 -143 122 -242
158 -86 32 -266 41 -352 18z m317 -80 c167 -53 288 -174 356 -352 21 -56 21
-74 25 -525 2 -314 0 -480 -8 -507 -15 -57 -68 -122 -120 -149 -36 -18 -58
-22 -110 -20 l-65 3 2 29 c2 29 -11 56 -27 56 -5 0 -27 -16 -50 -35 -51 -43
-98 -57 -170 -53 -54 3 -55 4 -52 31 3 28 -12 57 -28 57 -5 0 -27 -16 -50 -35
-51 -43 -98 -57 -170 -53 -54 3 -55 4 -53 32 2 29 -11 56 -28 56 -5 0 -24 -14
-43 -30 -18 -17 -50 -37 -70 -45 -40 -17 -152 -20 -161 -5 -3 5 13 34 35 64
69 92 70 96 70 580 0 468 5 516 55 617 74 148 197 250 355 295 80 22 218 17
307 -11z"/>
<path d="M1025 1621 c-52 -22 -84 -93 -85 -191 0 -80 13 -131 45 -169 48 -56
118 -42 157 31 19 36 23 58 23 133 0 109 -25 167 -80 191 -19 8 -36 14 -37 13
-2 0 -12 -4 -23 -8z"/>
<path d="M1325 1621 c-52 -22 -85 -94 -85 -188 0 -84 13 -133 45 -172 48 -56
118 -42 157 31 19 36 23 58 23 133 0 109 -25 167 -80 191 -19 8 -36 14 -37 13
-2 0 -12 -4 -23 -8z"/>
<path d="M1155 1142 c-66 -42 -95 -101 -95 -196 0 -146 108 -244 210 -191 94
49 128 211 67 319 -43 76 -123 106 -182 68z"/>
</g>
</svg>
